<svg width="86" height="101" viewBox="0 0 86 101" fill="none" xmlns="http://www.w3.org/2000/svg">
<path d="M0.114586 86.2006C7.10721 93.1932 16.0164 97.9553 25.7154 99.8846C35.4145 101.814 45.4678 100.824 54.6041 97.0393C63.7404 93.2549 71.5493 86.8463 77.0434 78.6238C82.5375 70.4013 85.4699 60.7344 85.4699 50.8453C85.4699 40.9562 82.5375 31.2892 77.0434 23.0668C71.5493 14.8443 63.7404 8.43569 54.6041 4.65131C45.4678 0.866929 35.4145 -0.123238 25.7154 1.80602C16.0164 3.73528 7.10721 8.49732 0.114586 15.4899L7.85652 23.2319C13.3179 17.7705 20.2762 14.0512 27.8514 12.5444C35.4266 11.0376 43.2785 11.8109 50.4142 14.7666C57.5499 17.7223 63.6488 22.7276 67.9398 29.1496C72.2309 35.5715 74.5212 43.1217 74.5212 50.8453C74.5212 58.5689 72.2309 66.1191 67.9398 72.541C63.6488 78.9629 57.5499 83.9682 50.4142 86.9239C43.2785 89.8796 35.4266 90.653 27.8514 89.1462C20.2762 87.6394 13.3179 83.9201 7.85652 78.4587L0.114586 86.2006Z" fill="white"/>
</svg>
