<svg width="174" height="101" viewBox="0 0 174 101" fill="none" xmlns="http://www.w3.org/2000/svg">
<path d="M88.1146 86.2006C95.1072 93.1932 104.016 97.9553 113.715 99.8846C123.414 101.814 133.468 100.824 142.604 97.0393C151.74 93.2549 159.549 86.8463 165.043 78.6238C170.537 70.4013 173.47 60.7344 173.47 50.8453C173.47 40.9562 170.537 31.2892 165.043 23.0668C159.549 14.8443 151.74 8.43569 142.604 4.65131C133.468 0.866929 123.414 -0.123238 113.715 1.80602C104.016 3.73528 95.1072 8.49732 88.1146 15.4899L95.8565 23.2319C101.318 17.7705 108.276 14.0512 115.851 12.5444C123.427 11.0376 131.279 11.8109 138.414 14.7666C145.55 17.7223 151.649 22.7276 155.94 29.1496C160.231 35.5715 162.521 43.1217 162.521 50.8453C162.521 58.5689 160.231 66.1191 155.94 72.541C151.649 78.9629 145.55 83.9682 138.414 86.9239C131.279 89.8796 123.427 90.653 115.851 89.1462C108.276 87.6394 101.318 83.9201 95.8565 78.4587L88.1146 86.2006Z" fill="white"/>
<path d="M13.9 50.975H17.6V58.075C16.65 58.7917 15.55 59.3417 14.3 59.725C13.05 60.1083 11.7917 60.3 10.525 60.3C8.70833 60.3 7.075 59.9167 5.625 59.15C4.175 58.3667 3.03333 57.2917 2.2 55.925C1.38333 54.5417 0.975 52.9833 0.975 51.25C0.975 49.5167 1.38333 47.9667 2.2 46.6C3.03333 45.2167 4.18333 44.1417 5.65 43.375C7.11667 42.5917 8.76667 42.2 10.6 42.2C12.1333 42.2 13.525 42.4583 14.775 42.975C16.025 43.4917 17.075 44.2417 17.925 45.225L15.325 47.625C14.075 46.3083 12.5667 45.65 10.8 45.65C9.68333 45.65 8.69167 45.8833 7.825 46.35C6.95833 46.8167 6.28333 47.475 5.8 48.325C5.31667 49.175 5.075 50.15 5.075 51.25C5.075 52.3333 5.31667 53.3 5.8 54.15C6.28333 55 6.95 55.6667 7.8 56.15C8.66667 56.6167 9.65 56.85 10.75 56.85C11.9167 56.85 12.9667 56.6 13.9 56.1V50.975ZM27.0621 48.325C27.5288 47.675 28.1538 47.1833 28.9371 46.85C29.7371 46.5167 30.6538 46.35 31.6871 46.35V49.95C31.2538 49.9167 30.9621 49.9 30.8121 49.9C29.6954 49.9 28.8204 50.2167 28.1871 50.85C27.5538 51.4667 27.2371 52.4 27.2371 53.65V60H23.3371V46.55H27.0621V48.325ZM49.309 53.325C49.309 53.375 49.284 53.725 49.234 54.375H39.059C39.2423 55.2083 39.6757 55.8667 40.359 56.35C41.0423 56.8333 41.8923 57.075 42.909 57.075C43.609 57.075 44.2257 56.975 44.759 56.775C45.309 56.5583 45.8173 56.225 46.284 55.775L48.359 58.025C47.0923 59.475 45.2423 60.2 42.809 60.2C41.2923 60.2 39.9507 59.9083 38.784 59.325C37.6173 58.725 36.7173 57.9 36.084 56.85C35.4507 55.8 35.134 54.6083 35.134 53.275C35.134 51.9583 35.4423 50.775 36.059 49.725C36.6923 48.6583 37.5507 47.8333 38.634 47.25C39.734 46.65 40.959 46.35 42.309 46.35C43.6257 46.35 44.8173 46.6333 45.884 47.2C46.9507 47.7667 47.784 48.5833 48.384 49.65C49.0007 50.7 49.309 51.925 49.309 53.325ZM42.334 49.3C41.4507 49.3 40.709 49.55 40.109 50.05C39.509 50.55 39.1423 51.2333 39.009 52.1H45.634C45.5007 51.25 45.134 50.575 44.534 50.075C43.934 49.5583 43.2007 49.3 42.334 49.3ZM67.3305 53.325C67.3305 53.375 67.3055 53.725 67.2555 54.375H57.0805C57.2638 55.2083 57.6971 55.8667 58.3805 56.35C59.0638 56.8333 59.9138 57.075 60.9305 57.075C61.6305 57.075 62.2471 56.975 62.7805 56.775C63.3305 56.5583 63.8388 56.225 64.3055 55.775L66.3805 58.025C65.1138 59.475 63.2638 60.2 60.8305 60.2C59.3138 60.2 57.9721 59.9083 56.8055 59.325C55.6388 58.725 54.7388 57.9 54.1055 56.85C53.4721 55.8 53.1555 54.6083 53.1555 53.275C53.1555 51.9583 53.4638 50.775 54.0805 49.725C54.7138 48.6583 55.5721 47.8333 56.6555 47.25C57.7555 46.65 58.9805 46.35 60.3305 46.35C61.6471 46.35 62.8388 46.6333 63.9055 47.2C64.9721 47.7667 65.8055 48.5833 66.4055 49.65C67.0221 50.7 67.3305 51.925 67.3305 53.325ZM60.3555 49.3C59.4721 49.3 58.7305 49.55 58.1305 50.05C57.5305 50.55 57.1638 51.2333 57.0305 52.1H63.6555C63.5221 51.25 63.1555 50.575 62.5555 50.075C61.9555 49.5583 61.2221 49.3 60.3555 49.3ZM80.352 46.35C82.0186 46.35 83.3603 46.85 84.377 47.85C85.4103 48.85 85.927 50.3333 85.927 52.3V60H82.027V52.9C82.027 51.8333 81.7936 51.0417 81.327 50.525C80.8603 49.9917 80.1853 49.725 79.302 49.725C78.3186 49.725 77.5353 50.0333 76.952 50.65C76.3686 51.25 76.077 52.15 76.077 53.35V60H72.177V46.55H75.902V48.125C76.4186 47.5583 77.0603 47.125 77.827 46.825C78.5936 46.5083 79.4353 46.35 80.352 46.35ZM113.068 46.55L108.193 60H104.443L101.418 51.65L98.293 60H94.543L89.693 46.55H93.368L96.543 55.65L99.843 46.55H103.143L106.343 55.65L109.618 46.55H113.068ZM122.117 46.35C124.2 46.35 125.8 46.85 126.917 47.85C128.033 48.8333 128.592 50.325 128.592 52.325V60H124.942V58.325C124.208 59.575 122.842 60.2 120.842 60.2C119.808 60.2 118.908 60.025 118.142 59.675C117.392 59.325 116.817 58.8417 116.417 58.225C116.017 57.6083 115.817 56.9083 115.817 56.125C115.817 54.875 116.283 53.8917 117.217 53.175C118.167 52.4583 119.625 52.1 121.592 52.1H124.692C124.692 51.25 124.433 50.6 123.917 50.15C123.4 49.6833 122.625 49.45 121.592 49.45C120.875 49.45 120.167 49.5667 119.467 49.8C118.783 50.0167 118.2 50.3167 117.717 50.7L116.317 47.975C117.05 47.4583 117.925 47.0583 118.942 46.775C119.975 46.4917 121.033 46.35 122.117 46.35ZM121.817 57.575C122.483 57.575 123.075 57.425 123.592 57.125C124.108 56.8083 124.475 56.35 124.692 55.75V54.375H122.017C120.417 54.375 119.617 54.9 119.617 55.95C119.617 56.45 119.808 56.85 120.192 57.15C120.592 57.4333 121.133 57.575 121.817 57.575ZM147.477 46.55L141.402 60.825C140.785 62.375 140.019 63.4667 139.102 64.1C138.202 64.7333 137.11 65.05 135.827 65.05C135.127 65.05 134.435 64.9417 133.752 64.725C133.069 64.5083 132.51 64.2083 132.077 63.825L133.502 61.05C133.802 61.3167 134.144 61.525 134.527 61.675C134.927 61.825 135.319 61.9 135.702 61.9C136.235 61.9 136.669 61.7667 137.002 61.5C137.335 61.25 137.635 60.825 137.902 60.225L137.952 60.1L132.127 46.55H136.152L139.927 55.675L143.727 46.55H147.477Z" fill="white"/>
</svg>
